<?xml version="1.0" encoding="utf-8"?>
<!-- Generator: Adobe Illustrator 23.0.5, SVG Export Plug-In . SVG Version: 6.00 Build 0)  -->
<svg version="1.1" id="Слой_1" xmlns="http://www.w3.org/2000/svg" xmlns:xlink="http://www.w3.org/1999/xlink" x="0px" y="0px"
	 viewBox="0 0 256 256" style="enable-background:new 0 0 256 256;" xml:space="preserve">
<style type="text/css">
	.st0{fill:none;stroke:#000000;stroke-width:10;stroke-miterlimit:10;}
	.st1{fill:none;stroke:#000000;stroke-width:10;stroke-linecap:round;stroke-miterlimit:10;}
</style>
<path class="st0" d="M237.3,213H19.7C13.2,213,8,207.8,8,201.3V55.7C8,49.2,13.2,44,19.7,44h217.6c6.5,0,11.7,5.2,11.7,11.7v145.6
	C249,207.8,243.8,213,237.3,213z"/>
<line class="st1" x1="8" y1="76" x2="185" y2="76"/>
<line class="st1" x1="201" y1="76" x2="229" y2="76"/>
<g>
	<path d="M108.5,142l-65.1,32.7v-11.3l48.7-23.6v-0.5l-48.7-26.9V101l65.1,36.5V142z"/>
</g>
<g>
	<path d="M217,180.5H107.9v-9H217V180.5z"/>
</g>
<line class="st1" x1="23" y1="57" x2="23" y2="64"/>
<line class="st1" x1="37" y1="57" x2="37" y2="64"/>
<line class="st1" x1="51" y1="57" x2="51" y2="64"/>
<line class="st1" x1="65" y1="57" x2="65" y2="64"/>
<line class="st1" x1="79" y1="57" x2="79" y2="64"/>
<line class="st1" x1="93" y1="57" x2="93" y2="64"/>
<line class="st1" x1="107" y1="57" x2="107" y2="64"/>
<line class="st1" x1="121" y1="57" x2="121" y2="64"/>
<line class="st1" x1="135" y1="57" x2="135" y2="64"/>
<line class="st1" x1="149" y1="57" x2="149" y2="64"/>
<line class="st1" x1="163" y1="57" x2="163" y2="64"/>
<line class="st1" x1="177" y1="57" x2="177" y2="64"/>
<line class="st1" x1="191" y1="57" x2="191" y2="64"/>
<line class="st1" x1="205" y1="57" x2="205" y2="64"/>
<line class="st1" x1="219" y1="57" x2="219" y2="64"/>
<line class="st1" x1="233" y1="57" x2="233" y2="64"/>
<g>
	<path d="M114.1,155.9v-5.7c0.7,0.6,1.4,1.1,2.4,1.6c0.9,0.5,1.9,0.9,2.9,1.2c1,0.3,2,0.6,3.1,0.7s2,0.3,2.8,0.3
		c3,0,5.2-0.6,6.7-1.7c1.5-1.1,2.2-2.7,2.2-4.8c0-1.1-0.2-2.1-0.7-2.9s-1.2-1.6-2-2.3c-0.9-0.7-1.9-1.3-3.1-2
		c-1.2-0.6-2.5-1.3-3.8-2c-1.4-0.7-2.8-1.5-4.1-2.2s-2.3-1.6-3.3-2.5c-0.9-0.9-1.7-1.9-2.2-3.1c-0.5-1.1-0.8-2.5-0.8-4
		c0-1.9,0.4-3.5,1.2-4.9c0.8-1.4,1.9-2.6,3.3-3.5c1.4-0.9,2.9-1.6,4.6-2c1.7-0.4,3.5-0.7,5.3-0.7c4.1,0,7.1,0.5,8.9,1.5v5.5
		c-2.5-1.7-5.6-2.5-9.4-2.5c-1.1,0-2.1,0.1-3.2,0.3c-1.1,0.2-2,0.6-2.8,1.1s-1.5,1.1-2,1.9c-0.5,0.8-0.8,1.8-0.8,2.9
		c0,1.1,0.2,2,0.6,2.8c0.4,0.8,1,1.5,1.8,2.1c0.8,0.6,1.7,1.3,2.8,1.9c1.1,0.6,2.4,1.3,3.8,2c1.5,0.7,2.9,1.5,4.2,2.3
		s2.5,1.7,3.5,2.7s1.8,2.1,2.4,3.3c0.6,1.2,0.9,2.6,0.9,4.1c0,2-0.4,3.8-1.2,5.2c-0.8,1.4-1.9,2.6-3.2,3.5s-2.9,1.5-4.7,1.9
		c-1.8,0.4-3.6,0.6-5.6,0.6c-0.7,0-1.5-0.1-2.4-0.2c-1-0.1-1.9-0.3-3-0.5c-1-0.2-2-0.5-2.9-0.8C115.3,156.6,114.6,156.3,114.1,155.9
		z"/>
	<path d="M145.6,155.9v-5.7c0.7,0.6,1.4,1.1,2.4,1.6c0.9,0.5,1.9,0.9,2.9,1.2c1,0.3,2,0.6,3.1,0.7c1,0.2,2,0.3,2.8,0.3
		c3,0,5.2-0.6,6.7-1.7c1.5-1.1,2.2-2.7,2.2-4.8c0-1.1-0.2-2.1-0.7-2.9s-1.2-1.6-2-2.3c-0.9-0.7-1.9-1.3-3.1-2
		c-1.2-0.6-2.5-1.3-3.8-2c-1.4-0.7-2.8-1.5-4.1-2.2s-2.3-1.6-3.3-2.5s-1.7-1.9-2.2-3.1c-0.5-1.1-0.8-2.5-0.8-4
		c0-1.9,0.4-3.5,1.2-4.9c0.8-1.4,1.9-2.6,3.3-3.5c1.4-0.9,2.9-1.6,4.6-2c1.7-0.4,3.5-0.7,5.3-0.7c4.1,0,7.1,0.5,8.9,1.5v5.5
		c-2.5-1.7-5.6-2.5-9.4-2.5c-1.1,0-2.1,0.1-3.2,0.3c-1.1,0.2-2,0.6-2.8,1.1s-1.5,1.1-2,1.9c-0.5,0.8-0.8,1.8-0.8,2.9
		c0,1.1,0.2,2,0.6,2.8c0.4,0.8,1,1.5,1.8,2.1c0.8,0.6,1.7,1.3,2.8,1.9c1.1,0.6,2.4,1.3,3.8,2c1.5,0.7,2.9,1.5,4.2,2.3
		s2.5,1.7,3.5,2.7s1.8,2.1,2.4,3.3c0.6,1.2,0.9,2.6,0.9,4.1c0,2-0.4,3.8-1.2,5.2c-0.8,1.4-1.9,2.6-3.2,3.5c-1.4,0.9-2.9,1.5-4.7,1.9
		s-3.6,0.6-5.6,0.6c-0.7,0-1.5-0.1-2.4-0.2c-1-0.1-2-0.3-3-0.5c-1-0.2-2-0.5-2.9-0.8C146.8,156.6,146.1,156.3,145.6,155.9z"/>
	<path d="M210.2,157.6h-4.9v-18.9h-21.5v18.9H179v-41.5h4.9v18.2h21.5v-18.2h4.9V157.6z"/>
</g>
</svg>
